<svg width="55" height="114" viewBox="0 0 55 114" fill="none" xmlns="http://www.w3.org/2000/svg">
<path d="M20 10C20 15.5228 15.5228 20 10 20C4.47715 20 0 15.5228 0 10C0 4.47715 4.47715 0 10 0C15.5228 0 20 4.47715 20 10Z" fill="#DEDEDE"/>
<path d="M55 20C55 25.5228 50.5228 30 45 30C39.4772 30 35 25.5228 35 20C35 14.4772 39.4772 10 45 10C50.5228 10 55 14.4772 55 20Z" fill="#DEDEDE"/>
<path d="M20 52C20 57.5228 15.5228 62 10 62C4.47715 62 0 57.5228 0 52C0 46.4772 4.47715 42 10 42C15.5228 42 20 46.4772 20 52Z" fill="#DEDEDE"/>
<path d="M55 62C55 67.5229 50.5228 72 45 72C39.4772 72 35 67.5229 35 62C35 56.4772 39.4772 52 45 52C50.5228 52 55 56.4772 55 62Z" fill="#DEDEDE"/>
<path d="M20 94C20 99.5229 15.5228 104 10 104C4.47715 104 0 99.5229 0 94C0 88.4771 4.47715 84 10 84C15.5228 84 20 88.4771 20 94Z" fill="#DEDEDE"/>
<path d="M55 104C55 109.523 50.5228 114 45 114C39.4772 114 35 109.523 35 104C35 98.4771 39.4772 94 45 94C50.5228 94 55 98.4771 55 104Z" fill="#DEDEDE"/>
</svg>
